<?xml version="1.0" encoding="utf-8"?>
<!-- Generator: Adobe Illustrator 16.0.4, SVG Export Plug-In . SVG Version: 6.00 Build 0)  -->
<!DOCTYPE svg PUBLIC "-//W3C//DTD SVG 1.1//EN" "http://www.w3.org/Graphics/SVG/1.1/DTD/svg11.dtd">
<svg version="1.1" id="Capa_1" xmlns="http://www.w3.org/2000/svg" xmlns:xlink="http://www.w3.org/1999/xlink" x="0px" y="0px"
	 width="64px" height="64px" viewBox="0 0 64 64" enable-background="new 0 0 64 64" xml:space="preserve">
<g>
	<path fill="#0E0F0F" d="M45.191,19.059c-0.008-0.011-0.014-0.018-0.022-0.027c-0.521-0.831-1.177-1.567-1.944-2.171v7.164
		l3.239,4.959v-0.181c0.667,1.997,0.83,4.087,0,5.983v-4.179l-0.188,0.122l-4.162-6.373v-8.239
		c-0.479-0.267-0.986-0.489-1.518-0.661v4.443h-5.205v-4.44c-0.531,0.172-1.039,0.394-1.519,0.662v8.235l-4.163,6.373l-0.181-0.119
		v6.623c0,0.172,0.016,0.338,0.026,0.507l-0.032,21.569c0,1.717,1.393,3.109,3.109,3.109c1.717,0,3.11-1.393,3.11-3.109
		l0.021-13.916c0.713,0.195,1.456-6.428,2.229-6.428c0.771,0,1.513,6.623,2.222,6.432l-0.02,13.912c0,1.717,1.394,3.109,3.108,3.109
		c1.72,0,3.11-1.393,3.11-3.109l0.029-20.238c0.949,0.457,2.228,0.396,3.037-0.653C53.461,33.252,48.641,23.637,45.191,19.059z
		 M36.482,27.579c-0.537,0-0.971-0.436-0.971-0.972c0-0.537,0.434-0.972,0.971-0.972s0.973,0.435,0.973,0.972
		S37.02,27.579,36.482,27.579z M39.502,27.579c-0.536,0-0.973-0.436-0.973-0.972c0-0.537,0.437-0.972,0.973-0.972
		c0.537,0,0.973,0.435,0.973,0.972S40.039,27.579,39.502,27.579z"/>
	<path fill="#0E0F0F" d="M30.612,27.315c0.395-0.586,0.78-1.158,1.15-1.682c0.233-0.329,0.552-0.759,0.72-1.179l0.28-0.43v-7.159
		c-1.104,0.871-7.579,10.043-8.388,11.017c-0.146,0.175-0.26,0.366-0.358,0.563c-1.294,0.367-2.603,0.668-3.919,0.942V23.72
		c3.272-0.311,5.841-3.071,5.841-6.423v-5.113h-1.111v5.113c0,1.97-1.074,3.689-2.665,4.617v-9.739h-1.11v10.23
		c-0.307,0.096-0.628,0.161-0.956,0.198l-1.146-0.008v0.02c-0.327-0.033-0.644-0.099-0.952-0.187V12.173h-1.11v9.791
		c-1.638-0.915-2.75-2.664-2.75-4.668v-5.113h-1.11v5.113c0,3.379,2.611,6.155,5.922,6.428v5.897
		c-0.02,0.004-0.039,0.008-0.058,0.012c-2.392,0.478-1.876,3.646,0.058,4.23v25.926h1.146V33.911
		c2.115-0.423,4.219-0.869,6.274-1.533c0.274-0.089,0.5-0.22,0.697-0.37c0.153-0.068,0.294-0.167,0.416-0.312
		c0.682-0.82,2.046-2.724,2.046-2.724L30.612,27.315z"/>
	<path fill="#0E0F0F" d="M35.943,19.344h4.097v-4.045c-0.655-0.164-1.339-0.254-2.044-0.254c-0.708,0-1.395,0.091-2.053,0.255
		V19.344z"/>
	<path fill="#0E0F0F" d="M33.594,10.565c0.248,2.315,2.125,4.122,4.398,4.122s4.15-1.807,4.398-4.122
		c2.514-0.352,4.139-2.143,4.213-2.228c0.426-0.479,0.381-1.21-0.097-1.638c-0.478-0.429-1.214-0.388-1.644,0.087
		c-0.014,0.014-1.146,1.237-2.785,1.47c-0.11-0.275-0.245-0.537-0.402-0.782c0.004-0.016,0.014-0.03,0.014-0.046l-0.58-5.081
		C41.109,2.155,40.902,2,40.646,2h-5.662c-0.256,0-0.465,0.155-0.465,0.347l-0.463,5.081c0,0.096,0.053,0.183,0.135,0.245
		c-0.105,0.188-0.205,0.381-0.285,0.584c-1.628-0.232-2.753-1.437-2.783-1.469c-0.427-0.478-1.162-0.521-1.642-0.095
		c-0.482,0.427-0.527,1.164-0.1,1.645C29.457,8.422,31.08,10.213,33.594,10.565z M34.773,7.774h6.438
		c0.105,0.166,0.196,0.342,0.277,0.524H38.33h-0.672h-3.162C34.578,8.117,34.668,7.94,34.773,7.774z M34.443,10.63h3.215h0.672
		h3.213c0.096,0,0.188-0.008,0.281-0.013c-0.266,1.983-1.881,3.514-3.832,3.514s-3.564-1.531-3.83-3.514
		C34.256,10.622,34.348,10.63,34.443,10.63z"/>
</g>
</svg>
