<?xml version="1.0" encoding="utf-8"?>
<!-- Generator: Adobe Illustrator 15.0.0, SVG Export Plug-In . SVG Version: 6.00 Build 0)  -->
<!DOCTYPE svg PUBLIC "-//W3C//DTD SVG 1.1//EN" "http://www.w3.org/Graphics/SVG/1.1/DTD/svg11.dtd">
<svg version="1.1" id="Layer_1" xmlns="http://www.w3.org/2000/svg" xmlns:xlink="http://www.w3.org/1999/xlink" x="0px" y="0px"
	 width="26px" height="26px" viewBox="0 0 26 26" enable-background="new 0 0 26 26" xml:space="preserve">
<g>
	<rect x="10.471" y="14.989" width="5.059" height="1.686"/>
	<rect x="10.471" y="17.252" width="5.059" height="1.499"/>
	<rect x="10.471" y="19.328" width="5.059" height="0.765"/>
	<rect x="10.471" y="12.726" width="5.059" height="1.686"/>
	<rect x="10.471" y="10.462" width="5.059" height="1.686"/>
	<path d="M21.025,15.568v-2.263H19.94v-2.262h-1.073V8.781h-2.049V5.906H9.301v2.875H7.144v2.263H6.061v2.262H4.975v2.263H3.668
		v4.524h6.536V8.863h5.593v11.229h6.535v-4.524H21.025z M12.054,8.669h-1.841V7.237c0-0.452,0.367-0.818,0.818-0.818h0.205
		c0.452,0,0.818,0.366,0.818,0.818V8.669z M15.788,8.669h-1.842V7.237c0-0.452,0.366-0.818,0.819-0.818h0.203
		c0.453,0,0.819,0.366,0.819,0.818V8.669z"/>
	<rect x="10.471" y="9.13" width="5.059" height="0.755"/>
</g>
</svg>
