<?xml version="1.0" encoding="iso-8859-1"?>
<!-- Generator: Adobe Illustrator 16.0.0, SVG Export Plug-In . SVG Version: 6.00 Build 0)  -->
<!DOCTYPE svg PUBLIC "-//W3C//DTD SVG 1.1//EN" "http://www.w3.org/Graphics/SVG/1.1/DTD/svg11.dtd">
<svg version="1.1" id="Layer_1" xmlns="http://www.w3.org/2000/svg" xmlns:xlink="http://www.w3.org/1999/xlink" x="0px" y="0px"
	 width="31.77px" height="30.706px" viewBox="0 0 31.77 30.706" style="enable-background:new 0 0 31.77 30.706;"
	 xml:space="preserve">
<g>
	<path d="M26.928,15.116v-1.509l-0.217-0.086c-0.074-0.029-1.847-0.717-4.212-0.717c-1.309,0-2.523,0.21-3.637,0.62l-0.385-1.66
		c0.925-0.129,1.613-0.27,1.613-0.27V9.804c0,0-0.884,0.18-1.993,0.317l-0.525-2.267h0.404V4.076h-1.381V1.104h-1.468v2.973h-1.382
		v3.778h0.405l-0.524,2.264c-1.108-0.138-1.993-0.314-1.993-0.314v1.691c0,0,0.688,0.138,1.613,0.266l-0.363,1.57
		c-1.04-0.347-2.162-0.526-3.365-0.526c-2.365,0-4.138,0.688-4.212,0.718l-0.217,0.085v1.396c-0.716,0.134-1.162,0.374-1.162,0.766
		c0,2.038,0,14.4,0,14.4h10.605c0.367,0.328,0.904,0.536,1.503,0.536s1.136-0.208,1.503-0.536h10.338c0,0,0-13.686,0-14.4
		C27.876,15.451,27.516,15.244,26.928,15.116z M18.455,13.59c-0.298,0.126-0.588,0.265-0.871,0.42l-0.492-2.093
		c0.326-0.024,0.648-0.059,0.954-0.097L18.455,13.59z M17.664,10.173c-0.315,0.035-0.641,0.063-0.964,0.082l-0.565-2.4h0.993
		L17.664,10.173z M16.259,10.276c-0.127,0.004-0.253,0.006-0.376,0.006c-0.137,0-0.278-0.003-0.419-0.008l0.397-1.69L16.259,10.276z
		 M14.18,4.512h3.364v2.909h-0.072h-1.337h-0.548H14.25H14.18V4.512z M14.596,7.854h0.991l-0.563,2.397
		c-0.323-0.021-0.648-0.048-0.964-0.083L14.596,7.854z M13.678,11.816c0.306,0.038,0.628,0.07,0.954,0.098l-0.461,1.961
		c-0.286-0.146-0.578-0.278-0.878-0.395L13.678,11.816z M15.894,29.033c-0.881-0.362-3.914-1.516-6.951-1.516
		c-1.199,0-2.262,0.185-3.168,0.548V14.084c0.528-0.177,1.969-0.594,3.743-0.594c2.332,0,4.335,0.705,5.972,2.08v8.347l0.404-0.444
		V29.033z M16.008,15.098c-0.454-0.389-0.935-0.727-1.44-1.018l0.502-2.135c0.275,0.018,0.549,0.027,0.813,0.027
		c0.25,0,0.509-0.01,0.77-0.024l0.539,2.293C16.781,14.496,16.383,14.776,16.008,15.098z M26.241,28.069
		c-0.972-0.391-2.089-0.588-3.326-0.588c-3.036,0-5.925,1.161-6.792,1.546v-5.555l0.404,0.444V15.57
		c1.636-1.375,3.641-2.08,5.972-2.08c1.768,0,3.213,0.417,3.743,0.594V28.069z"/>
	<path d="M0,3.324L0.34,17.35l1.108-1.349h0.001l0.318-0.389l12.056-14.68L0,3.324z M11.383,2.885l-0.311,0.382l-0.715-0.583
		l-0.214,0.262l0.715,0.582l-0.231,0.284l-0.488-0.398L9.926,3.676l0.486,0.396l-0.316,0.391L9.383,3.878L9.168,4.14l0.714,0.583
		l-0.23,0.282L9.164,4.607L8.95,4.87l0.489,0.396L9.146,5.624L8.431,5.043L8.218,5.305l0.714,0.584L8.702,6.17L8.214,5.772L8,6.033
		l0.488,0.397L8.171,6.82L7.456,6.238l-0.212,0.26l0.714,0.584L7.726,7.365L7.238,6.967L7.026,7.228l0.487,0.397L7.228,7.976
		L7.215,7.965L7.062,8.164L6.526,7.725L6.311,7.987l0.567,0.462L6.646,8.731L6.307,8.454L6.094,8.717l0.338,0.275L6.113,9.379
		L5.55,8.919L5.336,9.181l0.563,0.46l-0.231,0.28L5.332,9.649l-0.213,0.26l0.335,0.275l-0.313,0.379l-0.629-0.513l-0.214,0.262
		l0.628,0.513l-0.231,0.282l-0.4-0.327l-0.213,0.262l0.4,0.325l-0.318,0.387l-0.625-0.509l-0.214,0.262l0.625,0.509l-0.232,0.283
		l-0.396-0.324l-0.213,0.262l0.395,0.322l-0.293,0.358L2.586,12.41l-0.213,0.261l0.621,0.507l-0.232,0.281l-0.393-0.32L2.155,13.4
		l0.393,0.321l-0.319,0.387l-0.618-0.505l-0.212,0.262l0.617,0.504l-0.231,0.282l-0.391-0.318l-0.213,0.262l0.389,0.317
		l-0.671,0.816L0.61,3.825l11.655-2.018l-0.667,0.816l-0.42-0.343l-0.214,0.262L11.383,2.885z"/>
	<path d="M2.603,11.148L8.315,4.19L2.458,5.205L2.603,11.148z M6.835,5.053L3.16,9.528L3.067,5.706L6.835,5.053z"/>
	<path d="M21.288,0l-2.77,2.649L29,13.603l2.769-2.649L21.288,0z M28.463,12.077l0.857-0.819l-0.331-0.348l-0.858,0.821
		l-0.358-0.376l0.557-0.534l-0.332-0.345l-0.557,0.532l-0.494-0.517l0.857-0.819l-0.331-0.348l-0.858,0.821l-0.36-0.376l0.557-0.533
		L26.479,8.89l-0.557,0.532l-0.483-0.505l0.948-0.905l-0.332-0.349L25.106,8.57l-0.359-0.375l0.647-0.619l-0.332-0.348l-0.647,0.619
		l-0.492-0.516l0.947-0.905l-0.332-0.349L23.59,6.985L23.231,6.61l0.647-0.619l-0.332-0.348l-0.647,0.621l-0.455-0.478l0.948-0.906
		L23.06,4.534l-0.948,0.907l-0.359-0.376L22.4,4.446L22.068,4.1l-0.646,0.619l-0.494-0.516l0.948-0.907l-0.332-0.347l-0.948,0.906
		L20.236,3.48l0.647-0.618l-0.332-0.348l-0.646,0.619L19.461,2.67l1.805-1.729l9.561,9.993l-1.806,1.727L28.463,12.077z"/>
</g>
<g>
</g>
<g>
</g>
<g>
</g>
<g>
</g>
<g>
</g>
<g>
</g>
<g>
</g>
<g>
</g>
<g>
</g>
<g>
</g>
<g>
</g>
<g>
</g>
<g>
</g>
<g>
</g>
<g>
</g>
</svg>
