<?xml version="1.0" encoding="iso-8859-1"?>
<!-- Generator: Adobe Illustrator 16.0.0, SVG Export Plug-In . SVG Version: 6.00 Build 0)  -->
<!DOCTYPE svg PUBLIC "-//W3C//DTD SVG 1.1//EN" "http://www.w3.org/Graphics/SVG/1.1/DTD/svg11.dtd">
<svg version="1.1" id="Layer_1" xmlns="http://www.w3.org/2000/svg" xmlns:xlink="http://www.w3.org/1999/xlink" x="0px" y="0px"
	 width="43.94px" height="40.512px" viewBox="0 0 43.94 40.512" style="enable-background:new 0 0 43.94 40.512;"
	 xml:space="preserve">
<g>
	<path d="M43.94,21.077c0-3.493-3.255-6.54-8.379-8.491c0.107-0.844,0.188-1.675,0.211-2.474c0.139-4.777-1.27-8.151-3.966-9.5
		C30.996,0.206,30.096,0,29.13,0c-2.55,0-5.461,1.471-8.304,3.991c-3.094-1.925-6.114-3.013-8.676-3.013
		c-1.701,0-3.13,0.472-4.248,1.404C5.369,4.494,5,8.583,6.467,13.397C2.457,15.334,0,18.039,0,21.077
		c0,3.459,3.188,6.482,8.226,8.436c-0.02,0.296-0.049,0.598-0.058,0.888c-0.139,4.777,1.27,8.151,3.965,9.501
		c0.81,0.406,1.71,0.611,2.676,0.611c2.944,0,6.368-1.95,9.612-5.225c2.631,1.443,5.168,2.249,7.368,2.249
		c1.701,0,3.131-0.472,4.249-1.404c1.937-1.615,2.6-4.391,2.157-7.756C41.768,26.472,43.94,23.924,43.94,21.077z M29.13,2
		c0.651,0,1.25,0.134,1.78,0.399c1.932,0.967,2.976,3.757,2.862,7.654c-0.018,0.61-0.07,1.24-0.141,1.88
		c-1.468-0.442-3.048-0.806-4.73-1.071c-2.042-2.245-4.209-4.181-6.377-5.731C24.849,3.148,27.159,2,29.13,2z M11.438,23.157
		c0.705,0.999,1.454,1.997,2.276,2.983c1.002,1.202,2.045,2.324,3.11,3.368c-2.342-0.285-4.522-0.755-6.457-1.374
		C10.572,26.539,10.93,24.869,11.438,23.157z M8.979,14.504c1.387-0.53,2.936-0.976,4.604-1.325
		c-0.422,0.736-0.834,1.486-1.224,2.265c-0.527,1.052-0.996,2.112-1.43,3.17C10.144,17.213,9.498,15.834,8.979,14.504z
		 M15.251,24.859c-1.12-1.344-2.119-2.721-3.012-4.098c0.542-1.47,1.173-2.951,1.909-4.422c0.634-1.267,1.322-2.472,2.042-3.619
		c1.838-0.253,3.78-0.391,5.78-0.391c2.054,0,4.047,0.146,5.929,0.412c0.266,0.302,0.531,0.604,0.791,0.916
		c1.311,1.573,2.472,3.191,3.47,4.802c-0.624,1.889-1.415,3.811-2.368,5.714c-0.972,1.942-2.064,3.752-3.221,5.397
		c-1.485,0.161-3.021,0.255-4.602,0.255c-0.636,0-1.264-0.016-1.886-0.043C18.418,28.346,16.779,26.693,15.251,24.859z
		 M30.968,13.311c0.82,0.187,1.608,0.396,2.361,0.629c-0.12,0.647-0.265,1.303-0.433,1.968
		C32.303,15.039,31.651,14.173,30.968,13.311z M31.581,25.068c0.717-1.433,1.34-2.877,1.883-4.316
		c1.203,2.284,2.059,4.499,2.511,6.493c-1.919,0.836-4.217,1.502-6.747,1.95C30.06,27.896,30.853,26.522,31.581,25.068z
		 M21.033,6.529c1.588,1.108,3.19,2.444,4.74,3.966c-1.235-0.102-2.5-0.166-3.802-0.166c-1.482,0-2.923,0.072-4.315,0.203
		C18.74,9.029,19.879,7.688,21.033,6.529z M9.183,3.918c0.749-0.624,1.747-0.94,2.967-0.94c2.069,0,4.565,0.887,7.17,2.443
		c-1.506,1.549-2.968,3.389-4.323,5.448c-2.458,0.39-4.708,0.982-6.68,1.739C7.147,8.705,7.331,5.462,9.183,3.918z M8.444,27.436
		C4.513,25.827,2,23.556,2,21.077c0-2.188,1.964-4.214,5.127-5.768c0.72,1.847,1.69,3.771,2.892,5.712
		C9.268,23.22,8.741,25.38,8.444,27.436z M14.81,38.512c-0.651,0-1.25-0.134-1.78-0.399c-1.932-0.967-2.975-3.757-2.862-7.655
		c0.002-0.089,0.014-0.184,0.018-0.273c2.682,0.821,5.763,1.366,9.103,1.557c1.119,0.933,2.249,1.765,3.372,2.492
		C19.928,36.911,17.134,38.512,14.81,38.512z M24.064,32.752c-0.469-0.295-0.939-0.607-1.412-0.943
		c0.775-0.011,1.538-0.041,2.29-0.089C24.651,32.076,24.359,32.42,24.064,32.752z M34.758,34.597
		c-0.749,0.624-1.747,0.94-2.968,0.94c-1.747,0-3.799-0.632-5.963-1.764c0.63-0.724,1.25-1.496,1.853-2.313
		c3.242-0.412,6.171-1.162,8.62-2.182C36.512,31.632,36.041,33.527,34.758,34.597z M37.813,26.314
		c-0.625-2.531-1.806-5.306-3.478-8.13c0.369-1.21,0.668-2.403,0.897-3.571c4.082,1.614,6.708,3.931,6.708,6.464
		C41.94,23.024,40.381,24.841,37.813,26.314z"/>
	<circle cx="21.97" cy="19.868" r="3.641"/>
</g>
<g>
</g>
<g>
</g>
<g>
</g>
<g>
</g>
<g>
</g>
<g>
</g>
<g>
</g>
<g>
</g>
<g>
</g>
<g>
</g>
<g>
</g>
<g>
</g>
<g>
</g>
<g>
</g>
<g>
</g>
</svg>
