<?xml version="1.0" encoding="UTF-8" standalone="no"?>
<!-- Generator: Adobe Illustrator 16.0.0, SVG Export Plug-In . SVG Version: 6.00 Build 0)  -->

<svg
   xmlns:dc="http://purl.org/dc/elements/1.1/"
   xmlns:cc="http://creativecommons.org/ns#"
   xmlns:rdf="http://www.w3.org/1999/02/22-rdf-syntax-ns#"
   xmlns:svg="http://www.w3.org/2000/svg"
   xmlns="http://www.w3.org/2000/svg"
   xmlns:sodipodi="http://sodipodi.sourceforge.net/DTD/sodipodi-0.dtd"
   xmlns:inkscape="http://www.inkscape.org/namespaces/inkscape"
   version="1.1"
   id="Layer_1"
   x="0px"
   y="0px"
   width="21.913px"
   height="31.172px"
   viewBox="0 0 21.913 31.172"
   style="enable-background:new 0 0 21.913 31.172;"
   xml:space="preserve"
   inkscape:version="0.48.4 r9939"
   sodipodi:docname="patent.svg"><metadata
   id="metadata57"><rdf:RDF><cc:Work
       rdf:about=""><dc:format>image/svg+xml</dc:format><dc:type
         rdf:resource="http://purl.org/dc/dcmitype/StillImage" /></cc:Work></rdf:RDF></metadata><defs
   id="defs55" /><sodipodi:namedview
   pagecolor="#ffffff"
   bordercolor="#666666"
   borderopacity="1"
   objecttolerance="10"
   gridtolerance="10"
   guidetolerance="10"
   inkscape:pageopacity="0"
   inkscape:pageshadow="2"
   inkscape:window-width="640"
   inkscape:window-height="480"
   id="namedview53"
   showgrid="false"
   inkscape:zoom="7.5708967"
   inkscape:cx="10.9565"
   inkscape:cy="15.586"
   inkscape:window-x="0"
   inkscape:window-y="0"
   inkscape:window-maximized="0"
   inkscape:current-layer="Layer_1" />
<g
   id="g3"
   style="fill:#000000">
	<rect
   x="3.696"
   y="17.797"
   width="9.624"
   height="1.125"
   id="rect5"
   style="fill:#000000" />
	<rect
   x="3.696"
   y="14.948"
   width="11.874"
   height="1.125"
   id="rect7"
   style="fill:#000000" />
	<rect
   x="3.696"
   y="21.087"
   width="5.938"
   height="1.125"
   id="rect9"
   style="fill:#000000" />
	<rect
   x="3.696"
   y="11.949"
   width="9.624"
   height="1.125"
   id="rect11"
   style="fill:#000000" />
	<rect
   x="3.696"
   y="6.324"
   width="7.108"
   height="3.874"
   id="rect13"
   style="fill:#000000" />
	<path
   d="M17.913,23.226c0-1.738-1.408-3.145-3.145-3.145c-1.733,0-3.141,1.406-3.141,3.145c0,1.733,1.407,3.139,3.141,3.139   C16.505,26.365,17.913,24.959,17.913,23.226z"
   id="path15"
   style="fill:#000000" />
	<polygon
   points="19.368,24.32 14.771,27.952 17.317,31.172 18.529,27.982 21.913,27.54  "
   id="polygon17"
   style="fill:#000000" />
	<polygon
   points="6.687,25.77 9.877,26.982 10.318,30.366 13.538,27.82 9.906,23.223  "
   id="polygon19"
   style="fill:#000000" />
	<path
   d="M7.215,26.998H1.396V1.395h12.007L13.379,6.27h5.183v17.367l0.951-0.674l0.443,0.553V4.875h-0.01l0.022-0.023l-5.165-4.813   V0H0v28.394h8.954l-0.097-0.75L7.215,26.998z M14.795,1.938l3.151,2.937H14.78L14.795,1.938z"
   id="path21"
   style="fill:#000000" />
</g>
<g
   id="g23">
</g>
<g
   id="g25">
</g>
<g
   id="g27">
</g>
<g
   id="g29">
</g>
<g
   id="g31">
</g>
<g
   id="g33">
</g>
<g
   id="g35">
</g>
<g
   id="g37">
</g>
<g
   id="g39">
</g>
<g
   id="g41">
</g>
<g
   id="g43">
</g>
<g
   id="g45">
</g>
<g
   id="g47">
</g>
<g
   id="g49">
</g>
<g
   id="g51">
</g>
</svg>