<?xml version="1.0" encoding="UTF-8" standalone="no"?>
<!-- Generator: Adobe Illustrator 16.0.4, SVG Export Plug-In . SVG Version: 6.00 Build 0)  -->

<svg
   xmlns:dc="http://purl.org/dc/elements/1.1/"
   xmlns:cc="http://creativecommons.org/ns#"
   xmlns:rdf="http://www.w3.org/1999/02/22-rdf-syntax-ns#"
   xmlns:svg="http://www.w3.org/2000/svg"
   xmlns="http://www.w3.org/2000/svg"
   xmlns:sodipodi="http://sodipodi.sourceforge.net/DTD/sodipodi-0.dtd"
   xmlns:inkscape="http://www.inkscape.org/namespaces/inkscape"
   version="1.1"
   id="Capa_1"
   x="0px"
   y="0px"
   width="16.217px"
   height="13.367px"
   viewBox="0 0 16.217 13.367"
   style="enable-background:new 0 0 16.217 13.367;"
   xml:space="preserve"
   inkscape:version="0.48.4 r9939"
   sodipodi:docname="people.svg"><metadata
   id="metadata39"><rdf:RDF><cc:Work
       rdf:about=""><dc:format>image/svg+xml</dc:format><dc:type
         rdf:resource="http://purl.org/dc/dcmitype/StillImage" /></cc:Work></rdf:RDF></metadata><defs
   id="defs37" /><sodipodi:namedview
   pagecolor="#ffffff"
   bordercolor="#666666"
   borderopacity="1"
   objecttolerance="10"
   gridtolerance="10"
   guidetolerance="10"
   inkscape:pageopacity="0"
   inkscape:pageshadow="2"
   inkscape:window-width="463"
   inkscape:window-height="453"
   id="namedview35"
   showgrid="false"
   inkscape:zoom="17.655421"
   inkscape:cx="8.1084995"
   inkscape:cy="6.6834998"
   inkscape:window-x="87"
   inkscape:window-y="50"
   inkscape:window-maximized="0"
   inkscape:current-layer="Capa_1" />
<path
   style="fill:#000000"
   d="M14.709,4.4c-0.508,0-0.92,0.412-0.92,0.918s0.412,0.918,0.92,0.918c0.506,0,0.918-0.412,0.918-0.918  S15.215,4.4,14.709,4.4z M1.51,4.4c-0.508,0-0.92,0.412-0.92,0.918s0.412,0.918,0.92,0.918c0.506,0,0.918-0.412,0.918-0.918  S2.016,4.4,1.51,4.4z M11.977,2.73c-0.754,0-1.365,0.613-1.365,1.367c0,0.753,0.611,1.365,1.365,1.365s1.367-0.612,1.367-1.365  C13.344,3.344,12.73,2.73,11.977,2.73z M16.217,11.039H14.66V8.174c0-0.493-0.145-0.95-0.377-1.348  c0.137-0.04,0.277-0.068,0.426-0.068c0.83,0,1.508,0.678,1.508,1.51V11.039z M4.24,2.73c-0.754,0-1.367,0.613-1.367,1.367  c0,0.753,0.613,1.365,1.367,1.365c0.752,0,1.365-0.612,1.365-1.365C5.605,3.344,4.992,2.73,4.24,2.73z M1.51,6.758  c0.148,0,0.287,0.028,0.424,0.068C1.699,7.224,1.557,7.681,1.557,8.174v2.865H0V8.268C0,7.436,0.678,6.758,1.51,6.758z M8.107,0  c-1.113,0-2.02,0.906-2.02,2.02c0,1.114,0.906,2.021,2.02,2.021s2.021-0.907,2.021-2.021C10.129,0.906,9.221,0,8.107,0z   M14.16,12.105h-2.385V7.746c0-0.6-0.158-1.157-0.414-1.657c0.195-0.058,0.4-0.099,0.615-0.099c1.203,0,2.184,0.979,2.184,2.184  V12.105z M4.439,7.746v4.359H2.057V8.174c0-1.204,0.979-2.184,2.184-2.184c0.215,0,0.418,0.041,0.613,0.099  C4.598,6.589,4.439,7.146,4.439,7.746z M4.939,13.367h6.336V7.746c0-1.747-1.422-3.168-3.168-3.168  c-1.748,0-3.168,1.421-3.168,3.168V13.367z"
   id="path3" />
<g
   id="g5">
</g>
<g
   id="g7">
</g>
<g
   id="g9">
</g>
<g
   id="g11">
</g>
<g
   id="g13">
</g>
<g
   id="g15">
</g>
<g
   id="g17">
</g>
<g
   id="g19">
</g>
<g
   id="g21">
</g>
<g
   id="g23">
</g>
<g
   id="g25">
</g>
<g
   id="g27">
</g>
<g
   id="g29">
</g>
<g
   id="g31">
</g>
<g
   id="g33">
</g>
</svg>