<?xml version="1.0" encoding="UTF-8" standalone="no"?>
<!-- Generator: Adobe Illustrator 16.0.4, SVG Export Plug-In . SVG Version: 6.00 Build 0)  -->

<svg
   xmlns:dc="http://purl.org/dc/elements/1.1/"
   xmlns:cc="http://creativecommons.org/ns#"
   xmlns:rdf="http://www.w3.org/1999/02/22-rdf-syntax-ns#"
   xmlns:svg="http://www.w3.org/2000/svg"
   xmlns="http://www.w3.org/2000/svg"
   xmlns:sodipodi="http://sodipodi.sourceforge.net/DTD/sodipodi-0.dtd"
   xmlns:inkscape="http://www.inkscape.org/namespaces/inkscape"
   version="1.1"
   id="Capa_1"
   x="0px"
   y="0px"
   width="20.797px"
   height="22px"
   viewBox="0 0 20.797 22"
   enable-background="new 0 0 20.797 22"
   xml:space="preserve"
   inkscape:version="0.48.4 r9939"
   sodipodi:docname="publications.svg"><metadata
   id="metadata29"><rdf:RDF><cc:Work
       rdf:about=""><dc:format>image/svg+xml</dc:format><dc:type
         rdf:resource="http://purl.org/dc/dcmitype/StillImage" /></cc:Work></rdf:RDF></metadata><defs
   id="defs27" /><sodipodi:namedview
   pagecolor="#ffffff"
   bordercolor="#666666"
   borderopacity="1"
   objecttolerance="10"
   gridtolerance="10"
   guidetolerance="10"
   inkscape:pageopacity="0"
   inkscape:pageshadow="2"
   inkscape:window-width="640"
   inkscape:window-height="480"
   id="namedview25"
   showgrid="false"
   inkscape:zoom="10.727273"
   inkscape:cx="10.3985"
   inkscape:cy="11"
   inkscape:window-x="0"
   inkscape:window-y="0"
   inkscape:window-maximized="0"
   inkscape:current-layer="Capa_1" />
<g
   id="g3"
   style="fill:#000000">
	<path
   d="M19.37,1.634V0H0v20.367h0.08C0.261,21.113,0.806,22,2.039,22h18.758V1.634H19.37z M18.146,1.223c0,0.313,0,1.798,0,3.789   H1.221c0-1.991,0-3.475,0-3.789C2.324,1.223,17.043,1.223,18.146,1.223z M1.221,5.897h16.925c0,5.072,0,12.5,0,13.25   c-1.103,0-15.822,0-16.925,0C1.221,18.396,1.221,10.969,1.221,5.897z M19.577,20.779c-1.144,0-17.538,0-17.538,0   c-0.377,0-0.578-0.2-0.687-0.412H19.37V2.854c0.088,0,0.162,0,0.207,0C19.577,3.964,19.577,19.67,19.577,20.779z"
   id="path5"
   style="fill:#000000" />
	<rect
   x="10.426"
   y="6.986"
   width="6.155"
   height="1.222"
   id="rect7"
   style="fill:#000000" />
	<rect
   x="10.426"
   y="9.469"
   width="6.155"
   height="1.225"
   id="rect9"
   style="fill:#000000" />
	<rect
   x="10.426"
   y="11.953"
   width="6.155"
   height="1.227"
   id="rect11"
   style="fill:#000000" />
	<rect
   x="10.426"
   y="14.303"
   width="6.155"
   height="1.227"
   id="rect13"
   style="fill:#000000" />
	<rect
   x="10.426"
   y="16.787"
   width="6.155"
   height="1.225"
   id="rect15"
   style="fill:#000000" />
	<rect
   x="2.359"
   y="6.986"
   width="6.293"
   height="6.194"
   id="rect17"
   style="fill:#000000" />
	<rect
   x="6.238"
   y="2.02"
   width="7.281"
   height="2.177"
   id="rect19"
   style="fill:#000000" />
	<rect
   x="2.29"
   y="14.438"
   width="6.479"
   height="1.226"
   id="rect21"
   style="fill:#000000" />
	<rect
   x="2.29"
   y="16.919"
   width="6.479"
   height="1.226"
   id="rect23"
   style="fill:#000000" />
</g>
</svg>